mtllib ./dice.obj.mtl

v -1.000000 -1.000000 1.000000
v 1.000000 -1.000000 1.000000
v -1.000000 1.000000 1.000000
v 1.000000 1.000000 1.000000

v 1.000000 -1.000000 1.000000
v 1.000000 -1.000000 -1.000000
v 1.000000 1.000000 1.000000
v 1.000000 1.000000 -1.000000

v 1.000000 -1.000000 -1.000000
v -1.000000 -1.000000 -1.000000
v 1.000000 1.000000 -1.000000
v -1.000000 1.000000 -1.000000

v -1.000000 -1.000000 -1.000000
v -1.000000 -1.000000 1.000000
v -1.000000 1.000000 -1.000000
v -1.000000 1.000000 1.000000

v -1.000000 1.000000 1.000000
v 1.000000 1.000000 1.000000
v -1.000000 1.000000 -1.000000
v 1.000000 1.000000 -1.000000

v -1.000000 -1.000000 -1.000000
v 1.000000 -1.000000 -1.000000
v -1.000000 -1.000000 1.000000
v 1.000000 -1.000000 1.000000

vn 0.000000 0.000000 1.000000
vn 0.000000 0.000000 1.000000
vn 0.000000 0.000000 1.000000
vn 0.000000 0.000000 1.000000

vn 1.000000 0.000000 0.000000
vn 1.000000 0.000000 0.000000
vn 1.000000 0.000000 0.000000
vn 1.000000 0.000000 0.000000

vn 0.000000 0.000000 -1.000000
vn 0.000000 0.000000 -1.000000
vn 0.000000 0.000000 -1.000000
vn 0.000000 0.000000 -1.000000

vn -1.000000 0.000000 0.000000
vn -1.000000 0.000000 0.000000
vn -1.000000 0.000000 0.000000
vn -1.000000 0.000000 0.000000

vn 0.000000 1.000000 0.000000
vn 0.000000 1.000000 0.000000
vn 0.000000 1.000000 0.000000
vn 0.000000 1.000000 0.000000

vn 0.000000 -1.000000 0.000000
vn 0.000000 -1.000000 0.000000
vn 0.000000 -1.000000 0.000000
vn 0.000000 -1.000000 0.000000

vt 0.000000 0.000000
vt 0.250000 0.000000
vt 0.000000 0.250000
vt 0.250000 0.250000

vt 0.250000 0.000000
vt 0.500000 0.000000
vt 0.250000 0.2500000
vt 0.500000 0.2500000

vt 0.500000 0.000000
vt 0.750000 0.000000
vt 0.500000 0.250000
vt 0.750000 0.250000

vt 0.750000 0.000000
vt 1.000000 0.000000
vt 0.750000 0.250000
vt 1.000000 0.250000

vt 0.000000 0.000000
vt 0.250000 0.000000
vt 0.000000 0.500000
vt 0.250000 0.500000

vt 0.250000 0.000000
vt 0.500000 0.000000
vt 0.250000 0.500000
vt 0.500000 0.500000

usemtl material_0
f 1/1/1 2/2/2 4/4/4
f 1/1/1 4/4/4 3/3/3

f 5/5/5 6/6/6 8/8/8
f 5/5/5 8/8/8 7/7/7

f 9/9/9 10/10/10 12/12/12
f 9/9/9 12/12/12 11/11/11

f 13/13/13 14/14/14 16/16/16
f 13/13/13 16/16/16 15/15/15

f 17/17/17 18/18/18 20/20/20
f 17/17/17 20/20/20 19/19/19

f 21/21/21 22/22/22 24/24/24
f 21/21/21 24/24/24 23/23/23
